<?xml version="1.0" encoding="UTF-8" standalone="no"?>
<!-- Created with Inkscape (http://www.inkscape.org/) -->

<svg
   width="176.87057mm"
   height="28.322493mm"
   viewBox="0 0 176.87057 28.322493"
   version="1.1"
   id="svg1046"
   inkscape:version="1.2.1 (9c6d41e4, 2022-07-14)"
   sodipodi:docname="darksub.io.v1.svg"
   xmlns:inkscape="http://www.inkscape.org/namespaces/inkscape"
   xmlns:sodipodi="http://sodipodi.sourceforge.net/DTD/sodipodi-0.dtd"
   xmlns="http://www.w3.org/2000/svg"
   xmlns:svg="http://www.w3.org/2000/svg">
  <sodipodi:namedview
     id="namedview1048"
     pagecolor="#ffffff"
     bordercolor="#000000"
     borderopacity="0.25"
     inkscape:showpageshadow="2"
     inkscape:pageopacity="0.0"
     inkscape:pagecheckerboard="0"
     inkscape:deskcolor="#d1d1d1"
     inkscape:document-units="mm"
     showgrid="false"
     inkscape:zoom="0.2102413"
     inkscape:cx="0"
     inkscape:cy="118.91098"
     inkscape:window-width="1309"
     inkscape:window-height="456"
     inkscape:window-x="151"
     inkscape:window-y="147"
     inkscape:window-maximized="0"
     inkscape:current-layer="layer1" />
  <defs
     id="defs1043" />
  <g
     inkscape:label="Layer 1"
     inkscape:groupmode="layer"
     id="layer1"
     transform="translate(-16.018096,-116.72016)">
    <g
       id="g1450"
       inkscape:export-filename="g1450.png"
       inkscape:export-xdpi="96"
       inkscape:export-ydpi="96"
       transform="matrix(0.4509426,0,0,0.4509426,-360.84654,-877.4789)">
      <rect
         style="fill:#ff3d56;fill-opacity:1;stroke-width:0.0765307"
         id="rect1416"
         width="45.776424"
         height="8.8773718"
         x="1301.2585"
         y="2305.9377"
         transform="matrix(1,0,-0.20110986,0.97956869,0,0)"
         inkscape:export-filename="rect6107_3.png"
         inkscape:export-xdpi="96"
         inkscape:export-ydpi="96" />
      <path
         d="m 1008.4595,2250.5181 9.404,-45.8049 h 8.4612 l -3.8269,18.64 h 10.7514 l 19.4769,-18.64 h 9.161 l -0.4963,2.4174 -21.3825,20.485 13.0348,20.485 -0.4963,2.4175 h -9.2246 l -11.8231,-18.6401 h -10.7515 l -3.8268,18.6401 z"
         id="path1418"
         style="font-weight:bold;font-size:214.022px;font-family:Orbitron;-inkscape-font-specification:'Orbitron Bold';fill:#000000;stroke-width:5.3015" />
      <path
         d="m 838.94145,2250.5181 9.40395,-45.805 h 36.89839 q 2.4175,0 4.20512,1.2088 1.78761,1.2087 2.57839,3.2445 0.80385,1.9722 0.30753,4.3896 l -5.77299,28.1192 q -0.49632,2.4175 -2.12301,4.4532 -1.61362,1.9722 -3.89756,3.1809 -2.28393,1.2089 -4.70143,1.2089 z m 10.83448,-8.4612 h 27.41933 q 0.31809,0 0.61175,-0.1909 0.30672,-0.2545 0.37202,-0.5725 l 5.61625,-27.3558 q 0.0653,-0.318 -0.14999,-0.5089 -0.20223,-0.2545 -0.52031,-0.2545 h -27.41933 q -0.31809,0 -0.62481,0.2545 -0.23003,0.1909 -0.29534,0.5089 l -5.61625,27.3558 q -0.0653,0.318 0.0733,0.5725 0.21529,0.1909 0.53338,0.1909 z"
         id="path1420"
         style="font-weight:bold;font-size:214.022px;font-family:Orbitron;-inkscape-font-specification:'Orbitron Bold';fill:#000000;fill-opacity:1;stroke-width:5.3015" />
      <path
         d="m 1072.0334,2250.5181 q -2.4175,0 -4.2051,-1.2087 -1.724,-1.2087 -2.5278,-3.1809 -0.7908,-2.0358 -0.2945,-4.4533 l 0.7183,-3.4989 h 8.3976 l -0.64,3.1172 q -0.065,0.3181 0.073,0.5726 0.2153,0.1909 0.5334,0.1909 h 27.4193 q 0.3181,0 0.5482,-0.1909 0.3067,-0.2545 0.372,-0.5726 l 1.7893,-8.7156 q 0.065,-0.3181 -0.1499,-0.509 -0.1517,-0.1908 -0.4698,-0.1908 H 1075.86 q -2.4175,0 -4.2051,-1.2088 -1.724,-1.2087 -2.5279,-3.1809 -0.7907,-2.0357 -0.2814,-4.5168 l 1.9331,-9.4155 q 0.4963,-2.4175 2.1099,-4.3896 1.6267,-2.0358 3.847,-3.2445 2.284,-1.2088 4.7015,-1.2088 h 28.1191 q 2.4175,0 4.1415,1.2088 1.7876,1.2087 2.5784,3.2445 0.8038,1.9721 0.3075,4.3896 l -0.7184,3.499 h -8.4612 l 0.64,-3.1173 q 0.065,-0.3181 -0.1499,-0.5089 -0.1387,-0.2545 -0.4567,-0.2545 h -27.4194 q -0.3181,0 -0.6248,0.2545 -0.23,0.1908 -0.2953,0.5089 l -1.7894,8.7157 q -0.065,0.3181 0.086,0.5089 0.2153,0.1909 0.5334,0.1909 h 27.801 q 2.4175,0 4.1415,1.2087 1.7876,1.2088 2.5784,3.2445 0.8039,1.9722 0.2945,4.4533 l -1.9331,9.4154 q -0.4963,2.4175 -2.123,4.4533 -1.6136,1.9722 -3.8975,3.1809 -2.2204,1.2087 -4.6378,1.2087 z"
         id="path1422"
         style="font-weight:bold;font-size:214.022px;font-family:Orbitron;-inkscape-font-specification:'Orbitron Bold';fill:#ff3d56;fill-opacity:1;stroke-width:5.3015" />
      <path
         d="m 895.45185,2250.5181 7.5885,-36.9621 q 0.4963,-2.4174 2.1099,-4.3895 1.62669,-2.0359 3.84696,-3.2446 2.284,-1.2088 4.70141,-1.2088 h 28.05548 q 2.4175,0 4.2051,1.2088 1.7876,1.2087 2.5784,3.2446 0.8039,1.9721 0.3075,4.3895 l -7.5884,36.9621 h -8.4612 l 3.1608,-15.3956 h -28.94616 l -3.16069,15.3956 z m 13.28236,-23.7932 h 28.94609 l 2.6253,-12.7872 q 0.065,-0.318 -0.15,-0.509 -0.2022,-0.2545 -0.5203,-0.2545 h -27.35568 q -0.3181,0 -0.62481,0.2545 -0.23,0.191 -0.2953,0.509 z"
         id="path1424"
         style="font-weight:bold;font-size:214.022px;font-family:Orbitron;-inkscape-font-specification:'Orbitron Bold';fill:#000000;stroke-width:5.3015" />
      <path
         d="m 1126.9193,2250.5181 q -2.4174,0 -4.205,-1.2087 -1.724,-1.2087 -2.5279,-3.1809 -0.7908,-2.0358 -0.2944,-4.4533 l 7.5884,-36.962 h 8.3976 l -7.5101,36.5803 q -0.065,0.3181 0.073,0.5726 0.2153,0.1909 0.5333,0.1909 h 27.3558 q 0.318,0 0.6117,-0.1909 0.3067,-0.2545 0.372,-0.5726 l 7.5101,-36.5803 h 8.4612 l -7.5885,36.962 q -0.4963,2.4175 -2.123,4.4533 -1.6136,1.9722 -3.8975,3.1809 -2.2204,1.2087 -4.6378,1.2087 z"
         id="path1426"
         style="font-weight:bold;font-size:214.022px;font-family:Orbitron;-inkscape-font-specification:'Orbitron Bold';fill:#ff3d56;fill-opacity:1;stroke-width:5.3015" />
      <path
         d="m 988.47885,2250.4861 -10.4223,-16.477 h 11.00594 l 9.0606,14.1232 -0.4832,2.3538 z m -36.51665,0 9.3909,-45.7413 h 36.89839 q 2.41751,0 4.20511,1.2088 1.7876,1.2087 2.5784,3.2445 0.8038,1.9722 0.3075,4.3896 l -2.5339,12.3419 q -0.4963,2.4175 -2.123,4.4533 -1.62671,2.0357 -3.91061,3.2445 -2.2709,1.1451 -4.6883,1.1451 l -28.51389,0.064 -3.2131,15.65 z m 14.1242,-24.1748 h 27.35569 q 0.318,0 0.6117,-0.1908 0.2937,-0.1909 0.359,-0.509 l 2.4032,-11.7057 q 0.065,-0.3181 -0.15,-0.5089 -0.2022,-0.2545 -0.5203,-0.2545 h -27.35574 q -0.3181,0 -0.6248,0.2545 -0.2301,0.1908 -0.2954,0.5089 l -2.40315,11.7057 q -0.065,0.3181 0.086,0.509 0.2153,0.1908 0.5334,0.1908 z"
         id="path1428"
         style="font-weight:bold;font-size:214.022px;font-family:Orbitron;-inkscape-font-specification:'Orbitron Bold';fill:#000000;stroke-width:5.3015" />
      <path
         d="m 1176.2126,2250.5181 9.404,-45.8049 h 35.1171 q 2.4174,0 4.1414,1.2088 1.7877,1.2087 2.5785,3.2445 0.8038,1.9721 0.3075,4.3896 l -1.8416,8.9701 q -0.1698,0.8271 -0.4538,1.5905 -0.284,0.7634 -0.7457,1.4632 0.7811,1.4632 1.0907,3.0537 0.3733,1.5904 0.047,3.1809 l -2.0244,9.8607 q -0.4963,2.4175 -2.123,4.4533 -1.6137,1.9722 -3.8976,3.1809 -2.2839,1.2087 -4.7014,1.2087 z m 10.8981,-8.4612 h 27.3557 q 0.3181,0 0.6118,-0.1908 0.3067,-0.2545 0.372,-0.5726 l 1.8677,-9.0973 q 0.065,-0.3181 -0.15,-0.509 -0.2022,-0.2544 -0.5203,-0.2544 h -27.3557 q -0.3181,0 -0.6248,0.2544 -0.23,0.1909 -0.2953,0.509 l -1.8678,9.0973 q -0.065,0.3181 0.073,0.5726 0.2153,0.1908 0.5334,0.1908 z m 3.9183,-19.0853 h 25.5744 q 0.3181,0 0.5481,-0.1909 0.2432,-0.2545 0.3085,-0.5725 l 1.6979,-8.2704 q 0.065,-0.3181 -0.086,-0.5089 -0.1386,-0.2545 -0.4567,-0.2545 h -25.5744 q -0.3181,0 -0.6248,0.2545 -0.23,0.1908 -0.2954,0.5089 l -1.6979,8.2704 q -0.065,0.318 0.073,0.5725 0.2153,0.1909 0.5334,0.1909 z"
         id="path1430"
         style="font-weight:bold;font-size:214.022px;font-family:Orbitron;-inkscape-font-specification:'Orbitron Bold';fill:#ff3d56;fill-opacity:1;stroke-width:5.3015" />
    </g>
  </g>
</svg>
